<svg width="33" height="33" viewBox="0 0 33 33" fill="none" xmlns="http://www.w3.org/2000/svg">
  <path opacity="0.1" fill-rule="evenodd" clip-rule="evenodd" d="M0 16.5C0 7.3873 7.3873 0 16.5 0C25.6127 0 33 7.3873 33 16.5C33 25.6127 25.6127 33 16.5 33C7.3873 33 0 25.6127 0 16.5Z" fill="#FDFDFD"/>
  <path fill-rule="evenodd" clip-rule="evenodd" d="M8.25 11C7.55964 11 7 11.5596 7 12.25V21.75C7 22.4404 7.55964 23 8.25 23H24.75C25.4404 23 26 22.4404 26 21.75V12.25C26 11.5596 25.4404 11 24.75 11H8.25ZM9.0724 12.5L16.5 18.1712L23.9276 12.5H9.0724ZM8.5 13.7872V21.5H24.5V13.7872L16.9029 19.5788C16.6536 19.7744 16.3464 19.7744 16.0971 19.5788L8.5 13.7872Z" fill="#FDFDFD"/>
</svg>