<svg width="33" height="33" viewBox="0 0 33 33" fill="none" xmlns="http://www.w3.org/2000/svg">
  <path opacity="0.1" fill-rule="evenodd" clip-rule="evenodd" d="M0 16.5C0 7.3873 7.3873 0 16.5 0C25.6127 0 33 7.3873 33 16.5C33 25.6127 25.6127 33 16.5 33C7.3873 33 0 25.6127 0 16.5Z" fill="#FDFDFD"/>
  <path fill-rule="evenodd" clip-rule="evenodd" d="M22.601 10.326C21.3677 9.08837 19.7583 8.27524 18.006 7.99225C16.2537 7.70926 14.4638 7.96832 12.8639 8.73798C11.264 9.50764 9.93461 10.7503 9.05289 12.3069C8.17117 13.8634 7.77125 15.6555 7.90455 17.447C7.91394 18.846 8.27094 20.207 8.96155 21.412L7.9043 25.5L12.1083 24.398C13.3456 24.9613 14.6895 25.2435 16.0483 25.2235C18.1361 25.1801 20.1311 24.3608 21.6839 22.9299C23.2367 21.499 24.2453 19.5539 24.5382 17.4607C24.8311 15.3675 24.3898 13.2399 23.2927 11.4419C23.1427 11.1909 22.8927 10.749 22.601 10.326ZM16.994 23.021C15.7713 23.021 14.5733 22.701 13.498 22.101L13.258 21.957L10.764 22.611L11.43 20.178L11.274 19.927C10.6097 18.8069 10.2639 17.5219 10.267 16.213C10.267 12.587 13.224 9.629 16.858 9.629C18.3037 9.62931 19.7043 10.1271 20.8346 11.0447C21.9649 11.9623 22.7611 13.2445 23.1005 14.6756C23.44 16.1067 23.3033 17.6156 22.7109 18.9676C22.1185 20.3196 21.1021 21.4425 19.8237 22.1664C18.9395 22.7272 17.9271 23.0223 16.894 23.021H16.994ZM20.609 18.587C20.412 18.488 19.439 18.009 19.256 17.941C19.074 17.876 18.941 17.842 18.811 18.04C18.678 18.237 18.298 18.686 18.184 18.815C18.07 18.948 17.952 18.963 17.754 18.865C17.557 18.765 16.918 18.557 16.162 17.88C15.572 17.355 15.177 16.705 15.059 16.508C14.945 16.31 15.048 16.204 15.147 16.105C15.234 16.017 15.344 15.873 15.443 15.759C15.543 15.645 15.576 15.561 15.641 15.429C15.706 15.295 15.675 15.181 15.626 15.082C15.576 14.983 15.181 14.006 15.014 13.612C14.854 13.223 14.691 13.277 14.569 13.272C14.455 13.265 14.322 13.265 14.189 13.265C14.0587 13.2657 13.9316 13.2973 13.8183 13.3574C13.705 13.4175 13.6089 13.5044 13.538 13.612C13.356 13.81 12.847 14.289 12.847 15.266C12.847 16.243 13.557 17.182 13.657 17.315C13.755 17.448 15.051 19.447 17.04 20.307C17.51 20.512 17.88 20.633 18.169 20.725C18.644 20.877 19.073 20.854 19.415 20.805C19.795 20.747 20.586 20.325 20.753 19.862C20.917 19.398 20.917 19.002 20.867 18.919C20.818 18.835 20.685 18.786 20.487 18.687L20.609 18.587Z" fill="#FDFDFD"/>
</svg>